# xmcd CD database file
#
# Track frame offsets:
#	150
#	14908
#	34917
#	55047
#	73672
#	94931
#	116738
#	136901
#	150541
#	166701
#	184924
#
# Disc length: 2733 seconds
#
# Revision: 1
# Processed by: cddbd v1.5.2PL0 Copyright (c) Steve Scherf et al.
# Submitted via: FreeDB 13.2
#
DISCID=940aab0b
DTITLE=Turboweekend - Ghost of a Chance
DYEAR=2009
DGENRE=Alternative Rock
TTITLE0=Trouble Is
TTITLE1=Something or Nothing
TTITLE2=Sweet Jezebel
TTITLE3=Holiday
TTITLE4=Colors
TTITLE5=Up with the Smoke - Down with the Ash
TTITLE6=After Hours
TTITLE7=Erase Myself
TTITLE8=Your Body Free from Mine
TTITLE9=Good Morning Moon
TTITLE10=Almost There
EXTD=Mermaid Records MR 0012\n
EXTT0=
EXTT1=
EXTT2=
EXTT3=
EXTT4=
EXTT5=
EXTT6=
EXTT7=
EXTT8=
EXTT9=
EXTT10=
PLAYORDER=
